<svg xmlns="http://www.w3.org/2000/svg" viewBox="-32.4487 -70 639.9003295898438 712.0329311533161"> <svg id="Layer_1" dataName="Layer 1" xmlns="http://www.w3.org/2000/svg" viewBox="0 -0.01171875 349.91015625 400.40234375" height="572.0329311533161" width="499.90032958984375" y="0" x="37.5513" preserveAspectRatio="xMinYMin" style="overflow: visible;"><path class="cls-1" d="M581.47,416.26c1.91,1.49,3.75,3,5.49,4.6a58.94,58.94,0,0,1,13.58,14.87C668,453.28,718,514.74,718,587.66A156.41,156.41,0,0,1,674.51,696c-.18,5.48-.54,11-1.1,16.56-.32,3.19-.73,6.53-1.23,10.13a174.68,174.68,0,0,0,63.83-135c0-90.49-69-165.15-157.22-174.07C579.73,414.57,580.63,415.46,581.47,416.26Z" transform="translate(-386.1 -374.81)" style="fill: #000000; fill-opacity: 1;"></path><path class="cls-1" d="M404.1,587.66a156.83,156.83,0,0,1,63.42-126,43.13,43.13,0,0,1-4.06-10.58,47.29,47.29,0,0,1-1.43-7.61A174.9,174.9,0,0,0,386.1,587.66c0,96.47,78.49,175,175,175,1.2,0,2.4,0,3.6,0a112.48,112.48,0,0,0-4.75-18C473.89,744,404.1,673.82,404.1,587.66Z" transform="translate(-386.1 -374.81)" style="fill: #000000; fill-opacity: 1;"></path><path class="cls-2" d="M528.21,650.82C504.43,634.15,482,616.33,475.6,588c-9.28-40.89,4.25-77.25,14.78-97.58.44,1,.9,2.05,1.38,3.07q-1.4-3-2.55-6A119.4,119.4,0,0,0,478.07,502c-13.69,21-19.52,60.16-16,85.11,8.67,61.48,65.43,76.75,95,126,11.28,18.81,19.12,40,20,62.09a196.18,196.18,0,0,0,27.79-57.64C582.25,684.1,549.9,666,528.21,650.82Z" transform="translate(-386.1 -374.81)" style="fill: #d9d9d9; fill-opacity: 1;"></path><path class="cls-3" d="M560.66,632.64s-94.42-41-68.21-137.71c-.2-.39-.38-.79-.57-1.19l-.12-.24c-.48-1-.94-2-1.38-3.07-10.53,20.33-24.06,56.69-14.78,97.58,6.43,28.32,28.84,46.14,52.61,62.81,21.69,15.2,54,33.28,76.66,66.79a147.2,147.2,0,0,1,20.87,47.22s6.68-18.2,8-50.36c-8.76-16.92-20.48-35.95-35.18-52.18C587.6,650.16,575,639.59,560.66,632.64Z" transform="translate(-386.1 -374.81)" style="fill: #a6a6a6; fill-opacity: 1;"></path><path class="cls-1" d="M663.43,678.19q-.42-9.24-1.67-18.43c-4.43-32.38-16.16-64.87-40-88C607.6,558,591.67,549,574.95,540.65a67.9,67.9,0,0,1-9.08.36,69.57,69.57,0,0,1-16.56-2.54c-15.16-2.93-28.6-10.75-39.79-21.69l-.05-.05q-2.05-1.81-4-3.73a62.61,62.61,0,0,1-5.62-6.29l0-.06c-.55-.7-1.08-1.41-1.59-2.14l-.12-.17q-.75-1.05-1.46-2.14l-.06-.1-.18-.29h0a78.56,78.56,0,0,0,7.34,30.36c4.46,9.65,11.37,19.8,21.79,29.88,11.21,10.85,26.49,21.61,47.19,31.59a117.23,117.23,0,0,1,39.8,31.84A140,140,0,0,1,635.29,666c8.32,22.83,15.28,53.37,17.88,93.92h0c4.12-10.3,7.93-37.24,7.93-37.24l0,.06c.54-3.73,1-7.48,1.4-11.23A228.85,228.85,0,0,0,663.43,678.19Z" transform="translate(-386.1 -374.81)" style="fill: #000000; fill-opacity: 1;"></path><path class="cls-4" d="M542.13,402.25a112.81,112.81,0,0,1,3.2-15.65A93.7,93.7,0,0,0,542.13,402.25Z" transform="translate(-386.1 -374.81)" style="fill: #737373;"></path><path class="cls-1" d="M611.8,471.41l-8.16,1.89c-11.42-33.73-26.92-37.94-26.92-37.94-37.67-29.33-26.56-60.56-26.56-60.56a50.44,50.44,0,0,0-4.62,11c-6.18,21.48.34,48.68.34,48.68l-25.09,3.64s29.81-.63,48.46,24.29a3,3,0,0,0,5.32-.86c.93-3.41-1.18-10.15-15.11-23.24,0,0,25,12.46,20.36,35.63,0,0-1.52,8.1-10.42-2.06,0,0-20.41-28-52.11-26.62,0,0-39.21,2.12-41.42-25.72a45.43,45.43,0,0,0-3.11,20.28,58.06,58.06,0,0,1,3-20.07c-.79,2.7-7.93,30.41,27.25,43.48,0,0,31.66,4.82,54,28.69a10.16,10.16,0,0,0-2-.88,6.1,6.1,0,0,0-1.92-.4,10.12,10.12,0,0,0-6.39,1.45l-.15.09-.35.23-.18.12a33.75,33.75,0,0,0-4.05-3.72l-.26-.19a54.45,54.45,0,0,1,4.32,3.91,10.19,10.19,0,1,0,14,1.89c3.1,1.44,5.76,3.57,6.67,6.72a8.39,8.39,0,0,1-2.24,8.07c-3.41,3.52-10.76,8.83-21.13,3.72l-7.75-5.47a32.1,32.1,0,0,0,8.48,7.89c4.19,1.83,9.82,2.71,17.19,1A22,22,0,0,0,572,510.36c4.42-4.49,12.58-10.65,19.23-3.68a7.75,7.75,0,0,1-.55,7.76,11.16,11.16,0,0,1-9.34,5.18c-4.38.08-11.87,1.16-16.68,7,22.4-11.8,33.27,5.63,33.27,5.63,9.67-10.5,2.83-32.39,2.83-32.39C599.17,495.2,596.18,481.29,611.8,471.41Zm-63,29.29a3,3,0,0,1-.69-5.88l.16.2.42-.23a3,3,0,0,1,.11,5.9Z" transform="translate(-386.1 -374.81)" style="fill: #000000; fill-opacity: 1;"></path><path class="cls-4" d="M545.55,385.85s-.08.26-.22.74l.22-.74Z" transform="translate(-386.1 -374.81)" style="fill: #737373;"></path><path class="cls-5" d="M653.17,759.88c-2.6-40.55-9.55-71.09-17.88-93.92a140,140,0,0,0-22.81-40.46,117.23,117.23,0,0,0-39.8-31.84c-20.69-10-36-20.74-47.19-31.59-10.42-10.08-17.33-20.23-21.79-29.88a78.56,78.56,0,0,1-7.34-30.36h0l-.28-.45-.28-.45c-.29-.46-.56-.93-.83-1.4-.72-1.24-1.45-2.56-2.07-3.73l0-.05-.42-.8h0c-26.2,96.7,68.21,137.71,68.21,137.71,14.3,6.95,26.94,17.52,37.93,29.65,14.7,16.23,26.42,35.25,35.18,52.18a321.47,321.47,0,0,1,19.4,45.41Z" transform="translate(-386.1 -374.81)" style="fill: #545454; fill-opacity: 1;"></path><path class="cls-5" d="M503.06,463.29c-35.18-13.07-28-40.78-27.25-43.48a58.06,58.06,0,0,0-3,20.07,37.13,37.13,0,0,0,1.34,8.47c4.24,18.12,20.1,23.39,28.78,24.91l.21,0c20.81,4.57,32.42,10.77,38.64,15.38l.26.19a33.75,33.75,0,0,1,4.05,3.72,9.76,9.76,0,0,1,5.68-1.86h.09c.29,0,.57,0,.87,0,1.58,0,2.45.35,4.5,1.41C534.83,468.12,503.06,463.29,503.06,463.29Z" transform="translate(-386.1 -374.81)" style="fill: #545454; fill-opacity: 1;"></path><path class="cls-5" d="M595.52,449c-3.6-7.22-8.62-14.56-15.51-19.63l-.05,0q-2.62-2.4-5.63-4.72c-8.44-7.86-23.37-25.18-24.16-49.82,0,0-11.11,31.22,26.56,60.56,0,0,15.5,4.21,26.92,37.94C603.64,473.31,602.91,462.39,595.52,449Z" transform="translate(-386.1 -374.81)" style="fill: #545454; fill-opacity: 1;"></path><path class="cls-5" d="M600.72,499.81s6.84,21.89-2.83,32.39c0,0-10.87-17.43-33.27-5.63,0,0,15.72-5.09,25.35,1.27,3.12,2.25,5.65,5.8,6.89,11.27C596.86,539.12,614.38,522.93,600.72,499.81Z" transform="translate(-386.1 -374.81)" style="fill: #545454; fill-opacity: 1;"></path><path class="cls-5" d="M545.89,434.54s-6.52-27.2-.34-48.68l-.22.74a112.81,112.81,0,0,0-3.2,15.65,102.38,102.38,0,0,0,.08,29.77l-21.41,6.15Z" transform="translate(-386.1 -374.81)" style="fill: #545454; fill-opacity: 1;"></path><path class="cls-5" d="M558.19,506.74a10.19,10.19,0,0,1-14.41,0l0-.05a10.18,10.18,0,1,0,15.54-13.06A10.18,10.18,0,0,1,558.19,506.74Z" transform="translate(-386.1 -374.81)" style="fill: #545454; fill-opacity: 1;"></path></svg></svg>